<?xml version="1.0" encoding="utf-8"?>
<!-- Generator: Adobe Illustrator 21.0.0, SVG Export Plug-In . SVG Version: 6.00 Build 0)  -->
<svg version="1.1" id="Layer_1" xmlns="http://www.w3.org/2000/svg" xmlns:xlink="http://www.w3.org/1999/xlink" x="0px" y="0px"
	 viewBox="0 0 200 84.1" style="enable-background:new 0 0 200 84.1;" xml:space="preserve">
<style type="text/css">
	.st0{fill:#EC1C24;}
	.st1{fill:#F6921E;}
	.st2{fill:#231F20;}
</style>
<g>
	<g>
		<path class="st0" d="M79.6,44.1c0,2.9-0.3,5.6-0.9,8.3l0,0c-1.1,4.8-3.1,9.3-5.9,13.2c-0.1,0.1-0.1,0.2-0.2,0.2
			c-0.5,0.7-1,1.3-1.5,1.9l0,0c-0.1,0.1-0.1,0.2-0.2,0.2c-1.6,1.9-3.5,3.7-5.5,5.3c-2.1,1.7-4.4,3.1-6.8,4.3
			c-2.9,1.4-5.9,2.4-9.2,3.1c-0.4,0.1-0.9,0.2-1.3,0.2c-0.4,0.1-0.8,0.1-1.2,0.2c-0.6,0.1-1.2,0.1-1.8,0.2c-0.9,0.1-1.8,0.1-2.7,0.1
			c-0.8,0-1.6,0-2.3-0.1c-1.4-0.1-2.7-0.2-4.1-0.5c-1.2-0.2-2.5-0.5-3.7-0.8c-6.8-1.9-12.8-5.7-17.4-10.7c-0.7-0.7-1.3-1.5-1.9-2.2
			c-2.8-3.6-4.9-7.6-6.3-12C5.6,51.6,5,47.9,5,44.1c0-14.8,8.7-27.6,21.2-33.6c-1.1,1.4-2.1,2.9-3,4.5c-0.1,0.1-0.2,0.2-0.3,0.3
			c-7.4,6-12.2,15.2-12.2,25.5c0,2.3,0.2,4.5,0.7,6.7c0,0.2,0.1,0.3,0.1,0.5c0.1,0.3,0.2,0.7,0.2,1c0.1,0.3,0.2,0.6,0.3,1
			c0.3,1,0.6,1.9,1,2.8c0.1,0.2,0.2,0.5,0.3,0.7c0.2,0.5,0.4,0.9,0.6,1.4c0.3,0.6,0.6,1.1,0.9,1.6v0c0.2,0.4,0.5,0.8,0.7,1.2
			c0.2,0.4,0.4,0.7,0.7,1c0.1,0.2,0.2,0.3,0.3,0.5c0.2,0.3,0.5,0.7,0.7,1c0.2,0.3,0.4,0.6,0.7,0.9c0.2,0.3,0.4,0.5,0.6,0.8
			c0.8,1,1.7,1.9,2.7,2.8c0.4,0.4,0.8,0.7,1.2,1c0.3,0.3,0.6,0.5,0.9,0.7c0.3,0.2,0.6,0.4,0.9,0.7c0.6,0.4,1.2,0.9,1.9,1.3
			c0.4,0.3,0.9,0.5,1.3,0.8c0.4,0.2,0.8,0.5,1.3,0.7c0.2,0.1,0.4,0.2,0.7,0.3c0.1,0.1,0.3,0.2,0.4,0.2c0,0,0.1,0,0.2,0.1
			c0.3,0.2,0.7,0.3,1,0.4v0c0.1,0.1,0.2,0.1,0.4,0.2c0.4,0.2,0.8,0.3,1.2,0.4c0.2,0.1,0.5,0.2,0.7,0.2l0,0c1.2,0.4,2.4,0.7,3.6,1
			c0.5,0.1,0.9,0.2,1.4,0.3c0.4,0.1,0.8,0.1,1.2,0.2c0.3,0,0.6,0.1,1,0.1l0,0c0,0,0.1,0,0.1,0c0.2,0,0.4,0,0.5,0c0.2,0,0.3,0,0.5,0
			c0.1,0,0.1,0,0.2,0c0.1,0,0.2,0,0.3,0c0,0,0.1,0,0.1,0h0.2c0,0,0,0,0.1,0c0,0,0,0,0,0h0.2c0.3,0,0.6,0,0.9,0
			c3.2,0,6.3-0.5,9.3-1.3c0.9-0.3,1.8-0.6,2.7-0.9c0.7-0.3,1.4-0.6,2.1-0.9h0c0.3-0.2,0.7-0.3,1-0.5c0.2-0.1,0.4-0.2,0.6-0.3
			c0.2-0.1,0.3-0.2,0.5-0.3c0.5-0.3,1-0.6,1.5-0.9c0.3-0.2,0.7-0.4,1-0.7c0.3-0.2,0.6-0.5,1-0.7c0.3-0.2,0.5-0.4,0.8-0.6
			c0.2-0.2,0.4-0.3,0.6-0.5c0.2-0.2,0.5-0.4,0.7-0.6c0.3-0.3,0.6-0.5,0.9-0.8c0.3-0.3,0.6-0.6,0.8-0.8c0.2-0.2,0.5-0.5,0.7-0.8
			c0.1-0.1,0.2-0.2,0.2-0.3c0.1-0.1,0.2-0.3,0.4-0.4c0.3-0.3,0.6-0.7,0.8-1c0.2-0.2,0.3-0.4,0.5-0.7c0,0,0,0,0,0c0,0,0,0,0,0
			s0,0,0,0c0.2-0.2,0.4-0.5,0.6-0.8c0.1-0.1,0.2-0.2,0.2-0.4c0.3-0.4,0.5-0.8,0.8-1.2c0.3-0.4,0.5-0.9,0.8-1.3
			c0.1-0.2,0.2-0.4,0.4-0.6c0,0,0,0,0,0c0,0,0,0,0-0.1c0.1-0.3,0.3-0.5,0.4-0.8c0.2-0.3,0.3-0.6,0.4-0.9c0.2-0.4,0.3-0.7,0.5-1.1
			c0.1-0.3,0.2-0.6,0.3-0.8c0.1-0.2,0.2-0.5,0.3-0.7c0.1-0.1,0.1-0.3,0.1-0.4c0-0.1,0.1-0.3,0.1-0.4c0.2-0.5,0.4-1.1,0.5-1.6
			c0.1-0.2,0.1-0.5,0.2-0.7c0.1-0.4,0.2-0.9,0.3-1.3c0.1-0.4,0.2-0.8,0.2-1.2c0.1-0.5,0.2-1,0.2-1.6c0-0.4,0.1-0.7,0.1-1.1
			c0-0.3,0-0.7,0.1-1c0-0.3,0-0.5,0-0.8c0-0.1,0-0.1,0-0.2c0-0.2,0-0.5,0-0.7c0-0.9,0-1.9-0.1-2.8c0-0.1,0-0.2,0-0.3c0,0,0,0,0,0
			c0.3,0.2,0.6,0.4,0.8,0.6c0.2,0.2,0.5,0.4,0.7,0.6c0,0,0,0,0,0c0.4-0.7,0.8-1.4,1.3-2c0,0,0.1-0.1,0.1-0.1c0,0.1,0,0.2,0.1,0.3
			c0.2,1.1,0.4,2.3,0.5,3.5c0,0,0,0.1,0,0.1C79.5,41.7,79.6,42.9,79.6,44.1z"/>
		<path class="st1" d="M76,40.7c0,0.2,0,0.5,0,0.7c0,0.1,0,0.1,0,0.2c0,0.3,0,0.5,0,0.8c0,0.3,0,0.7-0.1,1c0,0.4-0.1,0.7-0.1,1.1
			c-0.1,0.5-0.1,1-0.2,1.6c-0.1,0.4-0.1,0.8-0.2,1.2c-0.1,0.4-0.2,0.9-0.3,1.3c-0.1,0.2-0.1,0.5-0.2,0.7c-0.1,0.6-0.3,1.1-0.5,1.6
			c0,0.1-0.1,0.3-0.1,0.4c0,0.1-0.1,0.3-0.1,0.4c-0.1,0.2-0.2,0.5-0.3,0.7c-0.1,0.3-0.2,0.6-0.3,0.8c-0.1,0.4-0.3,0.7-0.5,1.1
			c-0.1,0.3-0.3,0.6-0.4,0.9c-0.1,0.3-0.3,0.5-0.4,0.8c0,0,0,0.1,0,0.1c0,0,0,0,0,0c-0.1,0.2-0.2,0.4-0.4,0.6
			c-0.2,0.4-0.5,0.9-0.8,1.3c-0.2,0.4-0.5,0.8-0.8,1.2c-0.1,0.1-0.2,0.2-0.2,0.4c-0.2,0.3-0.4,0.5-0.6,0.8c0,0,0,0,0,0s0,0,0,0
			c0,0,0,0,0,0c-0.2,0.2-0.3,0.4-0.5,0.7c-0.3,0.3-0.5,0.7-0.8,1c-0.1,0.1-0.2,0.3-0.4,0.4c-0.1,0.1-0.2,0.2-0.2,0.3
			c-0.2,0.3-0.5,0.5-0.7,0.8c-0.3,0.3-0.6,0.6-0.8,0.8c-0.3,0.3-0.6,0.5-0.9,0.8c-0.2,0.2-0.5,0.4-0.7,0.6c-0.2,0.2-0.4,0.3-0.6,0.5
			c-0.3,0.2-0.5,0.4-0.8,0.6c-0.3,0.2-0.6,0.5-1,0.7c-0.3,0.2-0.6,0.4-1,0.7c-0.5,0.3-1,0.6-1.5,0.9c-0.2,0.1-0.3,0.2-0.5,0.3
			c-0.2,0.1-0.4,0.2-0.6,0.3c-0.3,0.2-0.7,0.4-1,0.5h0c-0.7,0.3-1.4,0.6-2.1,0.9c-0.9,0.3-1.7,0.6-2.7,0.9c-2.9,0.9-6,1.3-9.3,1.3
			c-0.3,0-0.6,0-0.9,0h-0.1c0,0,0,0,0,0c0,0,0,0,0,0h-0.1c-0.1,0-0.2,0-0.2,0c-0.1,0-0.2,0-0.3,0c-0.1,0-0.1,0-0.2,0
			c-0.2,0-0.3,0-0.5,0c-0.2,0-0.4,0-0.5,0c0,0-0.1,0-0.1,0l0,0c-0.3,0-0.6-0.1-1-0.1c-0.4,0-0.8-0.1-1.2-0.2
			c-0.5-0.1-0.9-0.2-1.4-0.3c-1.2-0.2-2.4-0.6-3.6-1l0,0c-0.2-0.1-0.5-0.2-0.7-0.2c-0.4-0.1-0.8-0.3-1.2-0.4c-0.1,0-0.3-0.1-0.4-0.2
			v0c-0.3-0.1-0.7-0.3-1-0.4c-0.1,0-0.1,0-0.2-0.1c-0.2-0.1-0.3-0.1-0.4-0.2c-0.2-0.1-0.5-0.2-0.7-0.3c-0.4-0.2-0.8-0.4-1.3-0.7
			c-0.4-0.2-0.9-0.5-1.3-0.8c-0.6-0.4-1.3-0.8-1.9-1.3c-0.3-0.2-0.6-0.4-0.9-0.7c-0.3-0.2-0.6-0.5-0.9-0.7c-0.4-0.3-0.8-0.7-1.2-1
			c-0.2-0.2-0.3-0.3-0.5-0.5c-0.2-0.2-0.4-0.4-0.6-0.6c-0.1-0.1-0.2-0.2-0.3-0.3c-0.2-0.2-0.4-0.5-0.6-0.7c-0.2-0.2-0.5-0.5-0.7-0.8
			c-0.2-0.3-0.4-0.5-0.6-0.8c-0.2-0.3-0.5-0.6-0.7-0.9c-0.3-0.3-0.5-0.7-0.7-1c-0.1-0.2-0.2-0.3-0.3-0.5c-0.2-0.3-0.4-0.7-0.7-1
			c-0.2-0.4-0.5-0.8-0.7-1.2v0c-0.3-0.5-0.6-1.1-0.9-1.6c-0.2-0.5-0.4-0.9-0.6-1.4c-0.1-0.2-0.2-0.5-0.3-0.7c-0.4-0.9-0.7-1.9-1-2.8
			c-0.1-0.3-0.2-0.6-0.3-1c-0.1-0.3-0.2-0.7-0.2-1c0-0.2-0.1-0.3-0.1-0.5c-0.4-2.2-0.7-4.4-0.7-6.7c0-10.3,4.8-19.5,12.2-25.5
			c0.1-0.1,0.2-0.2,0.3-0.3c-3.1,5.5-4.9,11.8-4.9,18.5c0,2.1,0.2,4.1,0.5,6.1c0.3,2,0.8,3.9,1.4,5.7c0.3,0.8,0.6,1.6,0.9,2.3
			c0.9,2.1,1.9,4.1,3.1,6c0.1,0.1,0.1,0.2,0.2,0.3c0,0.1,0.1,0.2,0.1,0.2c0,0,0,0,0,0c0,0,0,0,0,0.1v0c0.1,0.1,0.2,0.2,0.2,0.4v0
			c0,0,0,0,0,0c0.2,0.3,0.4,0.6,0.6,0.9c0,0,0,0,0,0c0.1,0.2,0.2,0.3,0.3,0.5v0c0.1,0.2,0.3,0.4,0.4,0.6c0,0,0,0,0,0
			c0.1,0.1,0.1,0.2,0.2,0.3c0,0,0,0,0.1,0.1c0,0,0,0,0,0c0,0,0,0,0,0c0,0,0,0,0,0c0,0,0,0,0,0c0,0,0,0,0,0c0,0,0,0,0,0c0,0,0,0,0,0
			c0.1,0.2,0.3,0.4,0.4,0.5c0.1,0.1,0.2,0.2,0.2,0.3l0,0c0.2,0.3,0.5,0.5,0.8,0.8c0.2,0.2,0.4,0.4,0.6,0.6c0,0,0,0,0,0
			c0.8,0.8,1.7,1.5,2.7,2.1v0c1.8,1.2,3.9,2.1,6.1,2.6c0,0,0,0,0,0c0.3,0.1,0.5,0.1,0.8,0.2c0.2,0,0.4,0.1,0.6,0.1
			c1.1,0.2,2.1,0.3,3.2,0.3c1.7,0,3.3-0.2,4.8-0.6c8.7-2.1,15.2-10,15.2-19.4c0-5.6-2.3-10.6-5.9-14.2c5.8,0.4,11.2,2.2,16,4.9
			c0.2,0.1,0.4,0.3,0.7,0.4c1,0.6,1.9,1.2,2.8,1.9c0,0,0.1,0.1,0.1,0.1c0,0,0,0,0,0c0,0.1,0,0.2,0,0.3C75.9,38.8,76,39.8,76,40.7z"
			/>
		<path class="st1" d="M24.3,45.3c0,0.5,0,1,0,1.5c-2.2-4.4-3.5-9.4-3.5-14.6c0-13.1,7.8-24.4,19-29.5l6.5,11.9
			C33.5,18.8,24.3,31,24.3,45.3z"/>
		<path class="st0" d="M66.9,20.6c-2.5-0.6-5.1-0.9-7.8-0.9c-6.5,0-12.6,1.8-17.9,4.9h0c-1.6,1-3.2,2.1-4.6,3.3
			c-2.6,2.2-4.9,4.8-6.8,7.6c-1,1.5-1.8,3-2.5,4.6c0,0.1-0.1,0.2-0.1,0.2c-0.1,0.2-0.2,0.5-0.3,0.7c0-0.1,0-0.2,0.1-0.3v0l0-0.2
			c0.1-0.4,0.2-0.8,0.3-1.3c0.2-0.8,0.4-1.5,0.7-2.3c1.2-3.8,3.1-7.3,5.5-10.4c0,0,0,0,0,0c4-5.2,9.4-9.3,15.6-11.6l-0.6-1.1l0,0
			l-3.1-5.8l-0.4-0.7c0.2-0.2,0.5-0.3,0.8-0.4c5.1-2.8,10.9-4.4,17-4.4c1.2,0,2.4,0.1,3.5,0.2l0.4,9.5l0,1.1l0,0.9L66.9,20.6z"/>
		<path class="st1" d="M82.8,18.5c-1.8-1.1-3.8-2-5.8-2.8h0c-2.7-1-5.5-1.7-8.4-2.1l0.1,1.4l0.2,6l0.1,2c-2.8-0.7-5.8-1.1-8.8-1.1
			c-5.1,0-10,1.1-14.3,3h0c-3.1,1.4-6,3.2-8.6,5.4h0c-0.9,0.8-1.8,1.6-2.6,2.4c3-1.6,6.3-2.8,9.7-3.6h0c2.9-0.7,6-1.1,9.1-1.1h0.2
			c8,0,15.5,2.3,21.9,6.4c0.7,0.5,1.4,0.9,2.1,1.5l0.8-1.3l3.5-5.3l0.5-0.8l1.1-1.7l1.4-2.2l0.7-1.1L86,23l0.3-0.5l0.7-1.1
			C85.7,20.4,84.3,19.4,82.8,18.5z M72.2,14.5c0,0,0.1,0,0.1,0c0.1,0,0.1,0,0.2,0.1C72.4,14.6,72.3,14.5,72.2,14.5z"/>
	</g>
	<g>
		<path class="st0" d="M39.8,37.9c0,0-2.3,0.5-2.1-0.6c0-0.5,0.3-0.6,0.5-0.5c0-0.2-0.5-0.8,0.6-1.1c0.3-0.5,0.6-0.9,0.8-1.2
			c0.2-0.3,0.3-0.8,1.2-0.5c0.9,0.2,1.8,1.1,2,1.4c0.5,0,1.1,0.2,0.9,0.2c-0.2,0.2-0.3,0.3-0.3,0.3s0.3,0.2-0.6,0.2
			c0,0.2,0.2,0.3,0.3,0.3c0.2,0.2,0,0.2,0,0.3c0,0,0.2,0.5-0.3,0.3c-0.5-0.2-0.5-0.3-0.6-0.3c-0.2,0-0.5,0-0.5,0.2
			c0,0.2,0.5,0.5,0,0.5c-0.2,0.2,0.2,0.3,0,0.3c-0.2,0.2-1.2,0.9-1.7,1.1c-0.5,0-0.6-0.2-0.6-0.3s0.3-0.3,0.6-0.3
			C39.8,38,39.9,37.9,39.8,37.9"/>
		<path class="st0" d="M39.6,40.3c-0.2,0-0.9-0.5-0.5-0.6c0.3-0.3,1.8-1.2,2.1-1.4c0.3-0.2,0.8,0.3,0.3,0.6
			C41.1,39.4,39.6,40.3,39.6,40.3"/>
		<path class="st0" d="M41.9,39.2c0-0.3,0.3-1.2,0.3-1.4s0.8-0.3,0.6,0.6C42.5,39.2,41.9,39.6,41.9,39.2"/>
		<path class="st0" d="M43,37.4c0,0,4.3-0.2,4.6,0s1.8,2.4,1.4,4.4c-0.3,2-0.9,2.4-3.7,2.8c0-0.6-0.2-2.3-0.5-2.8
			c-0.3-0.5-1.2-1.5-1.5-1.5c0,0.5-0.2,1.8-0.2,1.8s-1.4,0.2-1.5-0.2c0-0.5,0-2.1,0-2.1s1.2-1.1,1.4-1.4c0.2,0.2,0.3,0.8,1.7,0.6
			C44.7,39.2,43,39.4,43,37.4"/>
		<path class="st0" d="M41.3,39.4c0,0-1.4,1.1-1.7,1.4c-0.2,0.3-0.3,1.5,1.4,1.5C41.3,41.5,41.3,39.4,41.3,39.4"/>
		<path class="st0" d="M38.1,41.1c-0.5,0-0.8-0.2-0.8-0.5c0-0.3,0.6-0.8,1.1-0.6c0.3,0.2,1.1,0.3,1.1,1.7c0.3,0.3,1.1,0.9,2.1,0.9
			c1.1,0,1.7,0,1.7,0.3v2c0,0-1.2,0-4.3-2.1c-0.3-0.3-0.5-0.6-0.5-1.1C38.5,41.2,38.2,41.1,38.1,41.1"/>
		<path class="st0" d="M37.2,41.2c-0.5,0-2,1.2-0.9,1.7c0.3-0.3,0.6-0.6,0.6-0.6s-0.3,0.8,0.3,0.9c0.6,0.2,0.3-0.3,0.6-0.3
			c0.2,0.3,0.2,0.5,0.5,0.5c0.3,0,0.3-0.9,0-1.4C38.1,41.5,37.8,41.2,37.2,41.2"/>
		<path class="st0" d="M43.6,41.4v4c0,0,1.2-0.5,1.4-0.8C45,44,44.7,41.4,43.6,41.4"/>
		<path class="st0" d="M40.4,44c0,0,1.5,1.1,2.4,1.4c-0.2,0.2-0.8,1.1-1.1,0.9C41.6,46.3,40.5,44.8,40.4,44"/>
		<polygon class="st0" points="35,46.3 33,46.3 32.9,45.5 35,45.5 		"/>
		<polygon class="st0" points="48.3,46.1 55.7,46.1 55.7,45.1 47,45.1 		"/>
		<path class="st0" d="M45.3,45.1c0.2-0.2,1.2,0.6,0.9,0.8c-0.3,0.2-3.1,1.2-3.2,1.2c-0.3-0.2-0.2-0.8,0.2-0.9
			C43.3,46,44.8,45.5,45.3,45.1"/>
		<path class="st0" d="M42.2,46.9c-0.3-0.2-2,1.5-1.2,1.7c0.8,0.2,2.6,0.5,3.1,0.8c0.5-0.2,0.8-0.6,0.8-0.8c0.3,0,0.8,0.5,1.2,0.3
			c0.5-0.2,2.6-1.7,2.6-2c-0.5-0.3-1.4-0.9-1.8-0.9C46.5,45.8,43.7,47.5,42.2,46.9"/>
		<path class="st0" d="M41.3,49c0.2,0,2.4,0.8,2.9,0.8c0.6-0.2,0.6-0.6,0.9-0.6c0.3,0,0.5,0.3,0.9,0c0.5-0.3,1.5-1.2,1.7-1.4
			c0,0.3,0,1.2-2,2.1c-2,0.9-6.7,2.3-6.9,2.9c0.2,0,0.8-0.2,1.2-0.3c0.3,0.2,0.8,0.8,0.6,1.8c-0.2,1.1-0.9,2.8-0.9,3.2s0,2.6,0,2.9
			c0,0.2,0.5,1.5-0.2,1.4s-0.9-0.2-1.2,0c-0.3,0-0.8,0.5-1.1,0.3c-0.5,0-1.1-0.3-1.1-0.5s0.5-0.2,0.9-0.3c0.5-0.2,0.6-0.6,1.4-0.9
			c0-0.5-0.3-4.3-0.3-5.1c0-0.8-0.3-2.4,0.2-3.1C38.7,51.5,40.5,48.9,41.3,49"/>
		<path class="st0" d="M44.2,51.2c0,0.3,1.4,3.7,2,3.7s6.3-1.2,7.3-0.8c0.3,0.5,0.9,1.2,0.9,1.7c0,0,0.2,1.1,0,1.2
			c0.2,0,0.6-0.2,0.8-0.5s0-1.8,0-2.1s0.8-1.7-0.2-1.5c-0.9,0-3.5,0-4.4-0.2c-0.8-0.2-2.8-0.6-3.2-0.3c-0.5,0.3-1.1,1.1-1.1,1.2
			c-0.2,0-0.3-0.2,0-0.8c0.2-0.6,0.9-2.3,0.8-3.2C46.6,49.8,44.2,51.2,44.2,51.2"/>
		<path class="st0" d="M41,45.8c0,0.2,0.2,0.5,0.3,0.6l-4.4-0.3c0,0-0.5-0.3-0.3-0.5L41,45.8z"/>
		<path class="st0" d="M36.1,45.5h4.4c0,0-0.3-0.5-0.5-0.8c-0.8,0-4.1,0-4.1,0s-0.5,0-0.5,0.9C35.5,45.8,35.8,46.1,36.1,45.5"/>
		<path class="st0" d="M31.8,46.3h0.9c0,0,0.3-0.2,0-0.5c-0.3-0.3-0.9-0.6-0.5-1.2c-0.5,0-1.1-0.2-0.9,1.2h-0.5c0,0-0.2-0.8-1.2-0.8
			c-1.1,0-3.7,1.1-3.7,1.1s2.9,0.8,3.7,0.8c0.8,0,1.2-0.8,1.2-0.8h0.3c0,0,0.2,0.6,0.3,0.8c0,0.3,0,0.9,0,0.9S31,48,31.2,48.4
			c0,0.5,0.3,0.5,0.5,0.5c0.2,0,0.2-0.2,0.6-0.2c0.2-0.2,0-0.8-0.3-0.9c0-0.3,0-0.6,0-0.6s0.3-0.3,0.3-0.5
			C32.1,46.4,31.8,46.6,31.8,46.3"/>
		<path class="st0" d="M37.2,50.6L37.2,50.6c0.3-0.2,0.5-0.6,0.5-0.6l0,0l0,0c0,0,0-2,0-2.6c0-0.6-1.1-1.1-1.2-1.1l0,0l0,0
			c-0.2,0.2-0.5,0.3-0.6,0.3c-0.3,0-0.5,0-0.8-0.3l0,0l0,0c-0.9,0-1.4,1.1-1.4,1.2l0,0c0,0.2-0.2,2.1,0,2.4c0,0.3,0.3,0.6,0.5,0.8
			c-0.2,0.6-1.1,4.1,0.2,4.6v0.6h3.1v-0.6C38.2,54.6,37.5,51.5,37.2,50.6 M33.6,47.4c0-0.2,0.5-0.9,1.1-0.9c0.3,0.3,0.6,0.3,0.9,0.3
			s0.6-0.3,0.8-0.3c0.3,0.2,0.9,0.5,0.9,0.9c0,0.6,0,2.4,0,2.6c0,0.2-0.2,0.3-0.3,0.5h-0.6v-1.2h-2v1.1h-0.5
			c-0.2-0.2-0.3-0.3-0.3-0.6C33.6,49.5,33.6,48.1,33.6,47.4 M35.8,54.6h-0.6c-0.2,0-0.3-0.2-0.3-0.3c0-0.2,0.2-0.3,0.3-0.3h0.6
			c0.2,0,0.3,0.2,0.3,0.3C36.1,54.4,35.9,54.6,35.8,54.6 M37,54.9l-1.5-1.7l-1.4,1.7l0,0c-0.9-0.3-0.3-3.1,0-4.3H37
			C37.3,51.8,37.8,54.4,37,54.9"/>
		<path class="st0" d="M36.5,51.8c0.3-0.5-0.2-0.8-0.2-0.8h-1.8c-0.6,0-0.5,0.8-0.5,0.8l1.1,0.9C35.5,52.7,36.2,52.3,36.5,51.8"/>
		<path class="st0" d="M35.8,52.9l1.1,1.2c0,0-0.2-1.5-0.2-2C36.5,52.3,35.8,52.9,35.8,52.9"/>
		<path class="st0" d="M34.2,52.1c0,0.5-0.2,2-0.2,2l1.1-1.2C35.2,52.9,34.6,52.3,34.2,52.1"/>
		<path class="st0" d="M36.4,48.9h0.2v-0.2c0-0.2-0.2-0.2-0.2-0.2h-1.7c-0.2,0-0.2,0.2-0.2,0.2v0.2h0.2H36.4z"/>
		<path class="st0" d="M33.9,55.9h-0.2v0.2c0,0.2,0.2,0.2,0.2,0.2H37c0.2,0,0.2-0.2,0.2-0.2v-0.2H37H33.9z"/>
	</g>
	<g>
		<path class="st2" d="M100.5,76.6v2l1.7-0.6l0.5,0.5c0,0.2,0,0.5,0,0.6c0,0.6-0.2,1.2-0.6,1.7c-0.3,0.5-0.9,0.6-1.5,0.6
			c-0.8,0-1.4-0.3-1.8-0.9c-0.5-0.5-0.8-1.1-1.1-1.8l0.5-0.3c0.6,1.7,1.4,2.4,2.4,2.4c0.5,0,0.8-0.2,1.1-0.5s0.5-0.6,0.5-1.1
			c0-0.2,0-0.3-0.2-0.5l-1.5,0.6l-0.5-0.6v-2.1h-2.6v-0.5h5.8v0.5C103.1,76.6,100.5,76.6,100.5,76.6z"/>
		<polygon class="st2" points="104.4,76.6 104.4,81.2 103.8,81.2 103.8,76.6 103,76.6 103,76.1 105,76.1 105,76.6 		"/>
		<path class="st2" d="M108.2,76.6v0.3c0.5,0,0.9,0.2,1.4,0.5s0.8,0.6,0.8,1.1c0,0.3-0.2,0.6-0.5,0.9c-0.3,0.2-0.6,0.3-0.9,0.3h-0.2
			v-0.6h0.3c0.5,0,0.6-0.2,0.6-0.6c0-0.5-0.5-0.8-1.5-0.9v3.7h-0.6c-0.3-0.5-0.6-0.9-0.9-1.4c-0.5-0.5-0.9-0.6-1.5-0.6l-0.2-0.8
			c0.3-0.3,1.2-0.8,2.6-1.5v-0.3h-2.8v-0.5h5.8v0.5C110.6,76.6,108.2,76.6,108.2,76.6z M107.6,77.5c-0.3,0.2-0.6,0.3-0.8,0.5
			l-0.8,0.8c0.3,0.2,0.6,0.5,0.8,0.8c0.2,0.2,0.5,0.5,0.8,0.9V77.5z"/>
		<path class="st2" d="M118.5,75.2c-0.9-0.6-1.8-0.9-2.4-0.9s-1.1,0.2-1.5,0.5c-0.5,0.3-0.6,0.8-0.6,1.4h0.6v0.5h-0.6V81h-0.6v-4.4
			h-0.6v-0.5h0.6c0-0.8,0.3-1.4,0.8-1.8c0.5-0.5,1.1-0.6,1.8-0.6c0.5,0,0.9,0.2,1.5,0.3c0.3,0.2,0.8,0.5,1.4,0.8L118.5,75.2z"/>
		<path class="st2" d="M118.9,76.8v4.6h-0.6c-0.3-0.5-0.8-0.9-1.5-1.4c-0.8-0.5-1.4-0.6-2-0.6l-0.2-0.8c0.3-0.3,0.9-0.6,1.8-0.9
			c0.3-0.2,0.9-0.3,2-0.8v-0.3h-4.1v-0.5h5.4v0.5h-0.8V76.8z M118.3,77.7c-0.6,0.2-1.5,0.6-2.8,1.2c1.1,0.5,2,0.9,2.8,1.5V77.7z"/>
		<path class="st2" d="M119.4,76.1h5.7v0.5h-5.7V76.1z M122.6,81.2c-0.6,0-1.2-0.3-1.8-0.9c-0.5-0.5-0.8-1.1-1.1-1.8l0.3-0.3
			c0.2,0.6,0.5,1.2,0.9,1.7c0.5,0.6,0.9,0.9,1.5,0.9c0.5,0,0.8-0.2,1.1-0.5c0.3-0.3,0.5-0.6,0.5-1.1c-0.5,0.3-0.8,0.5-1.2,0.5
			c-0.3,0-0.8-0.2-0.9-0.3c-0.3-0.3-0.5-0.6-0.5-0.9s0.2-0.6,0.3-0.9c0.2-0.2,0.5-0.3,0.9-0.3c0.3,0,0.5,0,0.6,0.2s0.3,0.3,0.3,0.6
			c0,0.2-0.2,0.5-0.3,0.6l-0.5-0.3c0.2-0.2,0.2-0.2,0.2-0.3s-0.2-0.3-0.3-0.3c-0.2,0-0.3,0-0.5,0.2c-0.2,0.2-0.2,0.3-0.2,0.5
			c0,0.3,0.2,0.5,0.3,0.6c0.2,0.2,0.3,0.3,0.6,0.3c0.5,0,0.9-0.2,1.2-0.6l0.6,0.6c0,0.6-0.2,1.2-0.6,1.5
			C123.7,80.9,123.2,81.2,122.6,81.2"/>
		<polygon class="st2" points="126.1,76.6 126.1,81.2 125.6,81.2 125.6,76.6 124.9,76.6 124.9,76.1 126.9,76.1 126.9,76.6 		"/>
		<path class="st2" d="M129.2,81.5c-0.6,0-1.1-0.2-1.4-0.3c-0.5-0.5-0.8-1.2-0.8-2c0-0.5,0.2-0.9,0.5-1.4c0.2-0.3,0.5-0.8,0.9-1.2
			h-1.8v-0.5h2.9v0.5c-0.5,0.2-0.9,0.5-1.2,1.1c-0.5,0.5-0.6,1.1-0.6,1.5c0,1.2,0.5,1.8,1.5,1.8c0.2,0,0.3,0,0.5-0.2v0.6
			C129.5,81.5,129.3,81.5,129.2,81.5"/>
		<path class="st2" d="M133,76.9v4.4h-0.6v-2.9c0-0.2-0.2-0.3-0.3-0.5c-0.3-0.6-0.8-0.9-1.4-0.9c-0.2,0-0.5,0.2-0.6,0.3
			c0,0-0.2,0.2-0.3,0.3c0.3-0.2,0.5-0.2,0.6-0.2c0.3,0,0.5,0,0.8,0.2c0.2,0.2,0.3,0.3,0.3,0.6c0,0.3-0.2,0.6-0.5,0.9
			c-0.3,0.3-0.6,0.6-0.9,0.6l-0.3-0.5c0.3-0.2,0.5-0.3,0.8-0.5c0.3-0.3,0.5-0.5,0.5-0.8c0-0.2-0.2-0.3-0.5-0.3s-0.5-0.2-0.6-0.2
			h-0.2l-0.3-0.6c0.3-0.3,0.6-0.6,0.6-0.6c0.3-0.2,0.5-0.3,0.8-0.3c0.6,0,1.2,0.3,1.7,1.1v-1.1h1.1v0.5H133V76.9z"/>
		<path class="st2" d="M138,76.6v4.6h-0.6c-0.3-0.5-0.8-0.9-1.5-1.2c-0.8-0.5-1.4-0.6-2-0.6l-0.2-0.8c0.9-0.6,2.1-1.1,3.7-1.7v-0.3
			h-4v-0.5h5.2v0.5H138z M137.4,77.5c-0.9,0.3-1.8,0.8-2.6,1.2c0.9,0.3,1.8,0.8,2.6,1.5V77.5z M135.9,81.4c-0.2-0.2-0.5-0.5-0.9-0.6
			l0.3-0.5c0.3,0.2,0.6,0.3,0.9,0.6L135.9,81.4z"/>
		<path class="st2" d="M146.5,75.2c-0.9-0.6-1.8-0.9-2.4-0.9s-1.1,0.2-1.5,0.5c-0.5,0.3-0.6,0.8-0.6,1.4h0.6v0.5h-0.6V81h-0.6v-4.4
			h-0.6v-0.5h0.6c0-0.8,0.3-1.4,0.8-1.8c0.5-0.5,1.1-0.6,1.8-0.6c0.5,0,0.9,0.2,1.5,0.3c0.3,0.2,0.8,0.5,1.4,0.8L146.5,75.2z"/>
		<path class="st2" d="M145.4,76.5v2l1.7-0.6l0.5,0.5c0,0.2,0,0.5,0,0.6c0,0.6-0.2,1.2-0.6,1.7c-0.3,0.5-0.9,0.6-1.5,0.6
			c-0.8,0-1.4-0.3-1.8-0.9c-0.5-0.5-0.8-1.1-1.1-1.8l0.5-0.3c0.6,1.7,1.4,2.4,2.4,2.4c0.5,0,0.8-0.2,1.1-0.5
			c0.3-0.3,0.5-0.6,0.5-1.1c0-0.2,0-0.3-0.2-0.5l-1.5,0.6l-0.6-0.5v-2.1H142v-0.5h5.8v0.5L145.4,76.5L145.4,76.5z"/>
		<path class="st2" d="M153.7,75.2c-0.9-0.6-1.8-0.9-2.4-0.9s-1.1,0.2-1.5,0.5s-0.6,0.8-0.6,1.4h0.6v0.5h-0.6V81h-0.6v-4.4h-0.6
			v-0.5h0.6c0-0.8,0.3-1.4,0.8-1.8c0.5-0.5,1.1-0.6,1.8-0.6c0.5,0,0.9,0.2,1.5,0.3c0.3,0.2,0.8,0.5,1.4,0.8L153.7,75.2z"/>
		<path class="st2" d="M153.2,76.3c0.2,0.6,0.6,0.9,1.4,0.9c0.2,0,0.2,0,0.3,0l0.5,0.6c-0.3,0.8-0.5,1.2-0.5,1.5
			c0,0.8,0.2,1.2,0.3,1.5l-0.5,0.2c-0.3-0.5-0.5-0.9-0.5-1.4c0-0.3,0-0.6,0.2-0.9c0-0.2,0.2-0.5,0.3-0.9c-0.5,0-0.9-0.2-1.2-0.5
			c-0.5-0.3-0.6-0.6-0.8-1.1c-0.6,0.5-0.9,0.9-0.9,1.5c0,0.3,0.2,0.5,0.5,0.5c0.2,0,0.3,0,0.5-0.2c0.2-0.2,0.3-0.2,0.3-0.3h0.5
			c0.2,0.2,0.2,0.5,0.2,0.9c0,1.2-0.6,1.7-1.8,1.7c-0.2,0-0.5,0-0.8-0.2c-0.2,0-0.3-0.2-0.6-0.3c-0.2-0.3-0.5-0.8-0.8-1.4l0.3-0.3
			c0.2,0.5,0.5,0.9,0.9,1.5l0,0l0.5,0.2c0.2,0.2,0.3,0.2,0.5,0.2c0.3,0,0.6-0.2,0.9-0.3c0.3-0.2,0.3-0.5,0.3-0.8
			c0-0.2,0-0.3-0.2-0.5c-0.3,0.3-0.6,0.5-0.9,0.5c-0.3,0-0.6-0.2-0.8-0.3c-0.2-0.2-0.3-0.5-0.3-0.8c0-0.5,0.2-0.9,0.6-1.4h-2.3v-0.5
			h6.3v0.5h-2.3V76.3z"/>
		<path class="st2" d="M156.4,76.6v4h0.3c0.5,0,0.9-0.2,1.5-0.5c0.6-0.3,0.9-0.8,0.9-1.2c0-0.5-0.3-0.8-0.8-0.8
			c-0.2,0-0.5,0.2-0.8,0.3l-0.3-0.5c0.3-0.3,0.8-0.3,1.2-0.3c0.3,0,0.6,0.2,0.9,0.5c0.2,0.3,0.3,0.6,0.3,0.9c0,0.5-0.3,0.9-0.8,1.4
			c-0.5,0.3-0.9,0.6-1.4,0.6c-0.5,0.2-0.9,0.2-1.7,0.2v-4.6h-0.5v-0.5h3.5V76c0-0.3-0.2-0.6-0.5-0.8c-0.3-0.2-0.6-0.3-0.9-0.3
			c-0.5,0-1.1,0.2-1.7,0.6l-0.2-0.5c0.8-0.5,1.4-0.6,2-0.6c0.5,0,0.9,0.2,1.4,0.5c0.3,0.3,0.6,0.8,0.6,1.2h0.6v0.5
			C160.4,76.6,156.4,76.6,156.4,76.6z"/>
		<polygon class="st2" points="161.5,76.6 161.5,81.2 160.9,81.2 160.9,76.6 160.1,76.6 160.1,76.1 162.2,76.1 162.2,76.6 		"/>
		<path class="st2" d="M167.4,76.5V81h-0.6c0-0.2,0-0.3,0-0.5c0-0.2,0-0.3,0-0.5c0-1.1-0.3-1.5-0.8-1.5c-0.2,0-0.3,0.2-0.5,0.3
			c-0.2,0.2-0.2,0.3-0.2,0.6h-0.6c0-0.2-0.2-0.5-0.2-0.6c-0.2-0.2-0.3-0.3-0.6-0.3s-0.5,0.2-0.6,0.3c-0.2,0.2-0.2,0.5-0.2,0.6
			c0,0.6,0.3,0.8,1.1,0.8h0.2l-0.2,0.6c-0.2,0-0.2,0-0.2,0c-0.5,0-0.8-0.2-1.1-0.5c-0.3-0.3-0.5-0.6-0.5-1.1c0-0.5,0.2-0.8,0.5-1.1
			c0.3-0.3,0.6-0.5,1.1-0.5c0.5,0,0.8,0.3,1.1,0.8c0.3-0.5,0.8-0.8,1.1-0.8c0.3,0,0.6,0.3,0.8,0.8v-2h-4.9v-0.5h6v0.5h-0.8
			C167.4,76.6,167.4,76.5,167.4,76.5z"/>
		<path class="st2" d="M171,79.2c0,0.3,0,0.6,0.2,0.9c0.2,0.5,0.5,0.6,0.8,0.6c0.2,0,0.3,0,0.5-0.2l0.2,0.5
			c-0.2,0.2-0.5,0.2-0.6,0.2c-0.9,0-1.5-0.8-1.5-2.3c0-0.9,0.6-1.8,1.7-2.8h0.9v0.5c-0.6,0.2-1.1,0.5-1.4,0.9
			C171.1,78,171,78.6,171,79.2"/>
		<path class="st2" d="M178,76.5V81h-0.6c0-0.2,0-0.3,0-0.5c0-0.2,0-0.3,0-0.5c0-1.1-0.3-1.5-0.8-1.5c-0.2,0-0.3,0.2-0.5,0.3
			c-0.2,0.2-0.2,0.3-0.2,0.6h-0.6c0-0.2-0.2-0.5-0.2-0.6c-0.2-0.2-0.3-0.3-0.6-0.3c-0.3,0-0.5,0.2-0.6,0.3c-0.2,0.2-0.2,0.5-0.2,0.6
			c0,0.6,0.3,0.8,1.1,0.8h0.2l-0.2,0.6c-0.2,0-0.2,0-0.2,0c-0.5,0-0.8-0.2-1.1-0.5c-0.3-0.3-0.5-0.6-0.5-1.1c0-0.5,0.2-0.8,0.5-1.1
			c0.3-0.3,0.6-0.5,1.1-0.5c0.5,0,0.8,0.3,1.1,0.8c0.3-0.5,0.8-0.8,1.1-0.8s0.6,0.3,0.8,0.8v-2h-4.9v-0.5h6v0.5H178V76.5z"/>
		<path class="st2" d="M183.1,76.8v4.6h-0.6V81c0-0.5-0.3-0.9-0.8-1.4c-0.5-0.5-1.1-0.8-1.4-0.8c-0.2,0-0.5,0-0.6,0.2
			c-0.2,0.2-0.3,0.3-0.3,0.5c0,0.2,0,0.5,0.2,0.5c0.2,0.2,0.3,0.2,0.6,0.2c0.2,0,0.3,0,0.5-0.2l0.2,0.6c-0.2,0.2-0.5,0.2-0.8,0.2
			c-0.3,0-0.6-0.2-0.9-0.5c-0.2-0.3-0.3-0.6-0.3-0.9c0-0.5,0.2-0.8,0.3-0.9c0.3-0.3,0.6-0.5,0.9-0.5c0.9,0,1.7,0.5,2.3,1.5v-2.9
			h-4.1v-0.5h5.2v0.5h-0.3C183.1,76.6,183.1,76.8,183.1,76.8z"/>
		<path class="st2" d="M185.8,81.5c-0.6,0-1.1-0.2-1.4-0.3c-0.5-0.5-0.8-1.2-0.8-2c0-0.5,0.2-0.9,0.5-1.4c0.2-0.3,0.5-0.8,0.9-1.2
			h-1.8v-0.5h2.9v0.5c-0.5,0.2-0.9,0.5-1.2,1.1c-0.5,0.5-0.6,1.1-0.6,1.5c0,1.2,0.5,1.8,1.5,1.8c0.2,0,0.3,0,0.5-0.2v0.6
			C186.1,81.5,186,81.5,185.8,81.5"/>
		<path class="st2" d="M186.4,76.6v2c0.9-0.6,1.7-1.1,2.3-1.2l0.6,0.8c-0.3,0.8-0.5,1.2-0.5,1.7c0,0.3,0.2,0.8,0.3,1.2l-0.5,0.2
			c-0.2-0.6-0.3-0.9-0.3-1.2c0-0.6,0-1.2,0.2-1.8c-0.6,0.3-1.4,0.8-2.3,1.5l-0.5-0.5v-2.6h-0.5v-0.5h4.4v0.5
			C189.8,76.6,186.4,76.6,186.4,76.6z"/>
		<path class="st2" d="M194.2,76.8v4.6h-0.6V81c0-0.5-0.3-0.9-0.8-1.4c-0.5-0.5-1.1-0.8-1.4-0.8c-0.2,0-0.5,0-0.6,0.2
			c-0.2,0.2-0.3,0.3-0.3,0.5c0,0.2,0,0.5,0.2,0.5c0.2,0.2,0.3,0.2,0.6,0.2c0.2,0,0.3,0,0.5-0.2l0.2,0.6c-0.2,0.2-0.5,0.2-0.8,0.2
			s-0.6-0.2-0.9-0.5c-0.3-0.3-0.3-0.6-0.3-0.9c0-0.5,0.2-0.8,0.3-0.9c0.3-0.3,0.6-0.5,0.9-0.5c0.9,0,1.7,0.5,2.3,1.5v-2.9h-4.1v-0.5
			h5.2v0.5h-0.3C194.2,76.6,194.2,76.8,194.2,76.8z"/>
	</g>
	<g>
		<path class="st0" d="M130.2,27.9H98.4c-0.6,0-1.1,0.5-1.1,1.1v2.4c0,0.6,0.5,1.1,1.1,1.1h23.7v13.2c-0.6-0.9-1.4-1.8-2.3-2.8
			c-2.8-2.9-5.8-4.3-8.9-4.3c-2.4,0-4.6,1.2-6.3,3.5c-1.4,1.8-2.1,4.1-2.1,6.1c0,2.1,0.3,4.7,2,7.2c2,2.9,5.1,3.8,7.8,3.8
			c3.7,0,6.7-2.6,6.7-5.8c0-2-0.9-3.5-2.8-4.4l-1.7-0.9V50c0,0.2,0,0.3,0,0.5s0,0.3,0,0.3c-0.2,0.8-1.5,1.8-2.9,1.8
			c-1.2,0-2.4-0.5-3.1-1.2c-0.5-0.6-0.8-1.4-0.6-2.1c0-0.9,0.3-1.7,1.1-2.6c0.8-0.9,1.5-1.4,2.8-1.4c3.2,0,5.8,1.5,8,4.6
			c1.7,2.6,2.6,5.2,2.6,8v6.6l4.7,2.9c0.2,0.2,0.3,0.2,0.5,0.2c0.6,0,1.1-0.5,1.1-1.1l0,0V32.5h1.8c0.6,0,1.1-0.5,1.1-1.1V29
			C131.2,28.4,130.7,27.9,130.2,27.9z"/>
		<path class="st0" d="M193.8,27.9h-28.3h-3.8h-8.1c-0.6,0-1.1,0.5-1.1,1.1l0,0v4.4c-3.8-4.1-7.3-6.1-10.6-6.1
			c-3.1,0-5.5,0.8-7.7,2.3c-2.1,1.7-3.2,3.7-3.2,6c0,7,8,7,9.8,6c0.3-0.2,0.8-0.5,1.4-0.5c1.5,0,2.1,1.2,2.1,2.3
			c0,1.7-2.3,3.1-5.1,3.1c-1.5,0-2.6-0.5-3.2-1.4l-1.2-1.8l-0.9,2.1c-0.2,0.5-0.5,1.1-0.5,1.8c0,1.7,0.8,3.2,2.3,4.4
			c1.5,1.2,3.2,1.8,5.1,1.8c3.1,0,5.5-1.1,7.2-3.2c1.4-1.7,2-3.8,2-6.1c0-1.4-0.5-2.6-1.5-4.1c-1.2-1.8-2.8-2.8-4.6-2.8
			c-0.6,0-1.4,0.2-2.3,0.5c-0.3-0.2-0.8,0-0.9,0c-0.3,0-0.8-0.2-1.1-0.6c-0.3-0.3-0.6-0.8-0.6-1.5c0-1.7,1.7-3.5,4.4-3.5h0.2
			c1.8,0,3.7,0.9,5.5,2.8c1.4,1.4,2.6,2.8,3.4,4.3v25.1l4.7,2.8c0.2,0.2,0.3,0.2,0.5,0.2c0.6,0,1.1-0.5,1.1-1.1l0,0V32.4h2.9h3.8
			h0.5v21.7l5.7,2.3c0.2,0,0.3,0,0.3,0c0.5,0,0.9-0.5,1.1-0.9v-0.2c0.9-6.4,3.8-10.9,8.6-13.6c0,0.3,0,0.8,0,1.2
			c0,0.9,0,3.2,0.2,4.6c0,0.8,0,1.2,0.2,1.7l0,0c0,2.4,0.3,6.4,1.2,9.2c1.5,5.4,4.3,6.6,6.3,6.7h0.2c1.2,0,2-0.3,2.6-0.9
			c0.3-0.3,0.8-1.1,0.8-2c0-1.1-0.2-1.8-0.5-2.3l-0.5-0.8l-0.9,0.2c-1.1,0.3-1.4,0.3-1.4,0.2h-0.2c-0.3,0-0.3,0-0.5-0.2
			c-0.3-0.2-0.9-0.8-1.4-2.4c-0.3-1.2-0.5-3.1-0.5-4c0-7,1.5-12.4,3.7-13.6h0.2c0.3-0.2,0.6-0.5,0.6-0.9c0-0.2,0-0.3-0.2-0.5v-0.2
			c-1.1-2.1-3.4-3.7-6.6-4.6h-0.3h-0.3c-2.4,0.5-5.5,2.1-9.3,5.4c-0.9,0.8-1.8,1.7-2.8,2.4v-8.7h21.7c0.6,0,1.1-0.5,1.1-1.1v-2.4
			C194.8,28.4,194.4,27.9,193.8,27.9z"/>
	</g>
</g>
</svg>
